<?xml version="1.0" encoding="utf-8"?>
<!-- Generator: Adobe Illustrator 15.1.0, SVG Export Plug-In . SVG Version: 6.00 Build 0)  -->
<!DOCTYPE svg PUBLIC "-//W3C//DTD SVG 1.1//EN" "http://www.w3.org/Graphics/SVG/1.1/DTD/svg11.dtd">
<svg version="1.1" xmlns="http://www.w3.org/2000/svg" xmlns:xlink="http://www.w3.org/1999/xlink" x="0px" y="0px"
	 width="15.391px" height="15.334px" viewBox="0 0 15.391 15.334" enable-background="new 0 0 15.391 15.334" xml:space="preserve">
<symbol  id="Selected_Saved_1_" viewBox="-7.193 -7.193 14.387 14.387">
	<g>
		<path fill="#8DC63F" d="M6.667,0c0-3.667-3-6.667-6.667-6.667s-6.667,3-6.667,6.667s3,6.667,6.667,6.667S6.667,3.667,6.667,0z"/>
		<path fill="none" stroke="#D1D3D4" stroke-width="1.0527" stroke-miterlimit="10" d="M6.667,0c0-3.667-3-6.667-6.667-6.667
			s-6.667,3-6.667,6.667s3,6.667,6.667,6.667S6.667,3.667,6.667,0z"/>
	</g>
	<g>
		<polygon fill="#FFFFFF" points="-4.401,-0.688 -4.401,-0.688 -2.701,1.012 -1.189,-0.499 2.539,3.229 4.24,1.529 -1.189,-3.899 		
			"/>
	</g>
</symbol>
<symbol  id="Un-Saved" viewBox="-7.193 -7.193 14.387 14.387">
	<path fill="#27AAE1" stroke="#ECEFE8" stroke-width="1.0527" stroke-miterlimit="10" d="M6.667,0c0-3.682-2.985-6.667-6.666-6.667
		c-3.683,0-6.668,2.985-6.668,6.667s2.985,6.667,6.668,6.667C3.682,6.667,6.667,3.682,6.667,0z"/>
	<g>
		<path fill="#FFFFFF" d="M2.026-2.89C1.411-3.32,0.693-3.537-0.042-3.526C-0.139-3.524-0.235-3.521-0.33-3.512
			c-0.039,0.004-0.078,0.01-0.117,0.015c-0.075,0.01-0.149,0.021-0.224,0.034c-0.045,0.009-0.089,0.021-0.133,0.03
			c-0.071,0.017-0.144,0.033-0.214,0.056c-0.033,0.01-0.066,0.021-0.1,0.032c-0.081,0.026-0.161,0.056-0.239,0.089
			C-1.374-3.249-1.391-3.241-1.41-3.233c-0.09,0.04-0.18,0.083-0.268,0.13C-1.682-3.102-1.685-3.099-1.69-3.097
			c-0.296,0.162-0.565,0.363-0.803,0.602C-2.497-2.491-2.5-2.487-2.504-2.483c-0.073,0.074-0.145,0.152-0.211,0.232
			c-0.014,0.017-0.027,0.035-0.042,0.053C-3.238-1.594-3.53-0.83-3.53,0.002h0.93l-1.487,2.23l-1.486-2.23h0.93
			c0-0.978,0.305-1.884,0.822-2.633c0.006-0.011,0.01-0.021,0.018-0.031c0.054-0.077,0.113-0.146,0.171-0.22
			c0.021-0.028,0.041-0.058,0.064-0.083c0.084-0.104,0.174-0.2,0.267-0.294c0.009-0.01,0.017-0.02,0.025-0.027
			c0.311-0.312,0.662-0.573,1.044-0.782c0.011-0.006,0.021-0.013,0.03-0.018c0.11-0.061,0.224-0.113,0.338-0.163
			c0.029-0.013,0.057-0.026,0.086-0.039c0.098-0.04,0.199-0.076,0.301-0.109c0.048-0.017,0.096-0.032,0.144-0.048
			c0.09-0.025,0.18-0.049,0.271-0.069C-1-4.529-0.941-4.544-0.878-4.557c0.025-0.005,0.049-0.013,0.074-0.018
			c0.087-0.015,0.173-0.022,0.26-0.034c0.03-0.003,0.062-0.009,0.093-0.012c0.155-0.016,0.31-0.024,0.464-0.024
			c0.944,0,1.865,0.287,2.656,0.843c0.252,0.177,0.313,0.522,0.137,0.775C2.626-2.774,2.277-2.714,2.026-2.89z"/>
		<path fill="#FFFFFF" d="M4.646,0.002c0,0.975-0.303,1.879-0.818,2.627C3.82,2.641,3.815,2.653,3.807,2.666
			C3.743,2.757,3.673,2.842,3.604,2.928C3.596,2.938,3.588,2.949,3.58,2.96C3.108,3.531,2.516,3.973,1.846,4.262
			c-0.02,0.01-0.037,0.018-0.055,0.025C1.683,4.331,1.574,4.37,1.463,4.406C1.424,4.42,1.384,4.435,1.344,4.446
			C1.247,4.476,1.15,4.499,1.052,4.522C0.997,4.534,0.943,4.548,0.888,4.56C0.861,4.564,0.835,4.572,0.809,4.577
			C0.734,4.59,0.661,4.596,0.588,4.605c-0.051,0.006-0.102,0.014-0.152,0.02c-0.124,0.011-0.247,0.017-0.37,0.018
			C0.045,4.644,0.023,4.646,0.001,4.646c-0.004,0-0.008-0.003-0.012-0.003c-0.943,0-1.863-0.284-2.653-0.839
			C-2.915,3.63-2.977,3.282-2.8,3.03c0.176-0.253,0.524-0.313,0.775-0.138c0.61,0.428,1.322,0.645,2.052,0.638
			c0.104-0.001,0.208-0.007,0.311-0.018C0.368,3.511,0.4,3.506,0.431,3.502C0.515,3.492,0.598,3.48,0.68,3.465
			C0.716,3.457,0.752,3.448,0.787,3.44c0.081-0.019,0.16-0.037,0.239-0.062c0.025-0.007,0.05-0.017,0.075-0.024
			C1.19,3.324,1.279,3.292,1.365,3.256c0.009-0.004,0.019-0.008,0.026-0.011c0.521-0.224,0.976-0.568,1.331-0.999
			C2.725,2.244,2.728,2.24,2.729,2.238c0.5-0.609,0.802-1.39,0.802-2.236h-0.93l1.487-2.229l1.486,2.229H4.646z"/>
	</g>
</symbol>
<g id="Layer_1" display="none">
	
		<use xlink:href="#Selected_Saved_1_"  width="14.387" height="14.387" x="-7.193" y="-7.193" transform="matrix(1 0 0 -1 7.6663 7.5952)" display="inline" overflow="visible"/>
</g>
<g id="Layer_1_copy" display="none">
	<g id="Selected_Saved" display="inline">
		<g>
			<path fill="#8DC63F" d="M14.333,7.595c0,3.667-3,6.667-6.667,6.667S1,11.262,1,7.595c0-3.667,3-6.667,6.667-6.667
				S14.333,3.928,14.333,7.595z"/>
			<path fill="none" stroke="#D1D3D4" stroke-width="1.0526" stroke-miterlimit="10" d="M14.333,7.595c0,3.667-3,6.667-6.667,6.667
				S1,11.262,1,7.595c0-3.667,3-6.667,6.667-6.667S14.333,3.928,14.333,7.595z"/>
		</g>
		<g>
			<polygon fill="#FFFFFF" points="3.265,8.283 3.265,8.283 4.966,6.583 6.477,8.094 10.205,4.366 11.906,6.066 6.477,11.494 			"/>
		</g>
	</g>
</g>
<g id="Layer_2" display="none">
	
		<use xlink:href="#Un-Saved"  width="14.387" height="14.387" x="-7.193" y="-7.193" transform="matrix(1 0 0 -1 7.6726 7.5952)" display="inline" overflow="visible"/>
</g>
<g id="Layer_3">
	<polygon fill="#336d93" points="7.902,11.921 1.831,5.613 3.992,3.533 7.902,7.595 11.811,3.533 13.973,5.613 	"/>
</g>
</svg>
