<?xml version="1.0" encoding="utf-8"?>
<!-- Generator: Adobe Illustrator 16.0.0, SVG Export Plug-In . SVG Version: 6.00 Build 0)  -->
<!DOCTYPE svg PUBLIC "-//W3C//DTD SVG 1.1//EN" "http://www.w3.org/Graphics/SVG/1.1/DTD/svg11.dtd">
<svg version="1.1" id="Layer_1" xmlns="http://www.w3.org/2000/svg" xmlns:xlink="http://www.w3.org/1999/xlink" x="0px" y="0px"
	 width="56px" height="56px" viewBox="0 0 56 56" enable-background="new 0 0 56 56" xml:space="preserve">
<g id="Form_Icon">
	<path fill="#ffffff" d="M31.673,16.557l-10.705,0.006c-0.593,0-1.072,0.483-1.072,1.075l0.013,19.541
		c0,0.591,0.48,1.073,1.074,1.073l15.128-0.009c0.593-0.001,1.073-0.483,1.072-1.077l-0.01-15.115L31.673,16.557z" transform="translate(1,-16)"/>
	<path fill="#414042" d="M31.673,16.557l-10.705,0.006c-0.593,0-1.072,0.483-1.072,1.075l0.013,19.541
		c0,0.591,0.48,1.073,1.074,1.073l15.128-0.009c0.593-0.001,1.073-0.483,1.072-1.077l-0.01-15.115L31.673,16.557z" transform="translate(0,-15)"/>
	<path fill="#FAFAFA" d="M31.462,17.176l0.388,4.043c0.039,0.386,0.388,0.743,0.771,0.791l4.178,0.494L31.462,17.176z" transform="translate(0,-15)"/>
</g>
</svg>
