<?xml version="1.0" encoding="utf-8"?>
<!-- Generator: Adobe Illustrator 16.0.0, SVG Export Plug-In . SVG Version: 6.00 Build 0)  -->
<!DOCTYPE svg PUBLIC "-//W3C//DTD SVG 1.1//EN" "http://www.w3.org/Graphics/SVG/1.1/DTD/svg11.dtd">
<svg version="1.1" id="Layer_1" xmlns="http://www.w3.org/2000/svg" xmlns:xlink="http://www.w3.org/1999/xlink" x="0px" y="0px"
	 width="612px" height="792px" viewBox="0 0 612 792" enable-background="new 0 0 612 792" xml:space="preserve">
<symbol  id="Saving" viewBox="-7.173 -7.165 14.387 14.387">
	<path fill="#A7A9AC" stroke="#ECEFE8" stroke-width="1.0527" stroke-miterlimit="10" d="M6.688,0.028
		c0-3.682-2.985-6.667-6.666-6.667c-3.683,0-6.668,2.985-6.668,6.667s2.985,6.667,6.668,6.667C3.702,6.695,6.688,3.71,6.688,0.028z"
		/>
	<g>
		<path fill="#FFFFFF" d="M2.047-2.861C1.432-3.292,0.714-3.509-0.021-3.498C-0.118-3.496-0.215-3.492-0.31-3.483
			c-0.039,0.004-0.078,0.01-0.117,0.015c-0.075,0.01-0.149,0.02-0.224,0.034c-0.045,0.009-0.089,0.021-0.133,0.03
			C-0.854-3.388-0.927-3.37-0.997-3.349c-0.033,0.01-0.066,0.022-0.1,0.032c-0.081,0.027-0.161,0.056-0.239,0.089
			C-1.353-3.221-1.37-3.213-1.389-3.204c-0.091,0.039-0.181,0.082-0.269,0.129C-1.661-3.073-1.664-3.07-1.669-3.068
			c-0.296,0.162-0.565,0.364-0.803,0.602c-0.005,0.004-0.008,0.008-0.012,0.012c-0.073,0.074-0.145,0.152-0.211,0.232
			C-2.708-2.206-2.722-2.188-2.736-2.17C-3.218-1.565-3.51-0.802-3.51,0.03h0.93l-1.487,2.23l-1.486-2.23h0.93
			c0-0.978,0.305-1.884,0.822-2.633c0.006-0.011,0.01-0.021,0.018-0.031c0.054-0.077,0.113-0.147,0.171-0.22
			c0.021-0.028,0.041-0.057,0.064-0.083c0.084-0.103,0.174-0.2,0.267-0.294c0.009-0.01,0.017-0.019,0.025-0.027
			c0.311-0.312,0.662-0.573,1.044-0.782c0.011-0.006,0.021-0.013,0.03-0.018c0.11-0.06,0.224-0.113,0.338-0.163
			c0.029-0.013,0.057-0.026,0.086-0.039C-1.661-4.3-1.56-4.336-1.458-4.369c0.048-0.017,0.096-0.033,0.144-0.048
			c0.09-0.026,0.18-0.049,0.271-0.07c0.062-0.014,0.121-0.029,0.184-0.042c0.025-0.005,0.049-0.012,0.074-0.017
			c0.087-0.015,0.173-0.023,0.26-0.034c0.03-0.003,0.062-0.009,0.093-0.012c0.155-0.016,0.31-0.025,0.464-0.025
			c0.944,0,1.865,0.288,2.656,0.843C2.938-3.598,3-3.251,2.823-2.998C2.646-2.746,2.298-2.686,2.047-2.861z"/>
		<path fill="#FFFFFF" d="M4.667,0.03C4.666,1.005,4.363,1.909,3.849,2.657C3.841,2.669,3.836,2.682,3.827,2.694
			C3.764,2.785,3.693,2.87,3.624,2.956C3.616,2.967,3.608,2.978,3.601,2.988C3.129,3.56,2.536,4.001,1.866,4.29
			c-0.02,0.009-0.037,0.017-0.055,0.025C1.703,4.359,1.595,4.398,1.483,4.435c-0.039,0.014-0.079,0.028-0.119,0.04
			C1.268,4.504,1.171,4.527,1.072,4.551C1.018,4.562,0.964,4.576,0.908,4.588C0.882,4.593,0.855,4.601,0.829,4.605
			C0.755,4.618,0.682,4.624,0.608,4.634C0.558,4.64,0.507,4.647,0.456,4.653C0.333,4.664,0.21,4.67,0.087,4.671
			C0.065,4.672,0.044,4.675,0.021,4.675c-0.004,0-0.008-0.002-0.012-0.002c-0.943,0-1.863-0.285-2.653-0.839
			c-0.251-0.176-0.312-0.523-0.136-0.775c0.176-0.253,0.524-0.313,0.775-0.137c0.61,0.427,1.322,0.644,2.052,0.637
			c0.104-0.001,0.208-0.007,0.311-0.017c0.03-0.003,0.062-0.008,0.093-0.012C0.535,3.521,0.618,3.509,0.7,3.493
			c0.036-0.008,0.072-0.017,0.107-0.025c0.081-0.018,0.16-0.037,0.239-0.062c0.025-0.007,0.05-0.017,0.075-0.024
			C1.211,3.353,1.3,3.32,1.386,3.284C1.395,3.28,1.404,3.276,1.412,3.273C1.933,3.05,2.388,2.705,2.743,2.274
			C2.745,2.272,2.748,2.269,2.75,2.267c0.5-0.609,0.802-1.389,0.802-2.236h-0.93l1.487-2.229L5.596,0.03H4.667z"/>
	</g>
</symbol>
<use xlink:href="#Saving"  width="14.387" height="14.387" x="-7.173" y="-7.165" transform="matrix(1 0 0 -1 305.5303 396.2617)" overflow="visible"/>
</svg>
