<?xml version="1.0" encoding="utf-8"?>
<!-- Generator: Adobe Illustrator 16.0.0, SVG Export Plug-In . SVG Version: 6.00 Build 0)  -->
<!DOCTYPE svg PUBLIC "-//W3C//DTD SVG 1.1//EN" "http://www.w3.org/Graphics/SVG/1.1/DTD/svg11.dtd">
<svg version="1.1" id="Layer_1" xmlns="http://www.w3.org/2000/svg" xmlns:xlink="http://www.w3.org/1999/xlink" x="0px" y="0px"
	 width="18.756px" height="18.167px" viewBox="0 0 18.756 18.167" enable-background="new 0 0 18.756 18.167" xml:space="preserve">
<g id="Interviewer_Icon_2">
	<g id="Interviewer_Icon">
		<g>
			<path fill="none" stroke="#919294" stroke-width="0.8661" stroke-miterlimit="10" d="M5.891,8.345
				c1.315,0,2.383-1.066,2.383-2.382c0-1.314-1.067-2.379-2.383-2.379c-1.313,0-2.378,1.064-2.378,2.379
				C3.513,7.279,4.577,8.345,5.891,8.345z"/>
			<path fill="none" stroke="#919294" stroke-width="0.8661" stroke-miterlimit="10" d="M7.569,8.562H4.215
				c-1.191,0-2.164,0.973-2.164,2.164v2.165h7.684v-2.165C9.734,9.534,8.76,8.562,7.569,8.562z"/>
		</g>
		<g>
			<path fill="#919294" d="M12.621,9.819c1.518,0,2.75-1.23,2.75-2.75c0-1.518-1.232-2.746-2.75-2.746S9.875,5.551,9.875,7.069
				C9.875,8.588,11.104,9.819,12.621,9.819z"/>
			<path fill="#919294" d="M14.559,10.069h-3.873c-1.375,0-2.498,1.123-2.498,2.498v2.5h8.871v-2.5
				C17.059,11.192,15.934,10.069,14.559,10.069z M15.305,13.67h-2.703v-1.543h2.703V13.67z"/>
		</g>
	</g>
</g>
</svg>
