<?xml version="1.0" encoding="utf-8"?>
<!-- Generator: Adobe Illustrator 16.0.0, SVG Export Plug-In . SVG Version: 6.00 Build 0)  -->
<!DOCTYPE svg PUBLIC "-//W3C//DTD SVG 1.1//EN" "http://www.w3.org/Graphics/SVG/1.1/DTD/svg11.dtd">
<svg version="1.1" id="Layer_1" xmlns="http://www.w3.org/2000/svg" xmlns:xlink="http://www.w3.org/1999/xlink" x="0px" y="0px"
	 width="56px" height="56px" viewBox="0 0 56 56" enable-background="new 0 0 56 56" xml:space="preserve">
<g>
	<g>
		<g>
			<path fill="#ffffff" d="M28.002,26.635c3.148,0,5.705-2.553,5.705-5.703c0-3.148-2.557-5.699-5.705-5.699
				s-5.697,2.551-5.697,5.699C22.305,24.083,24.854,26.635,28.002,26.635z" transform="translate(1,-16)"/>
			<path fill="#ffffff" d="M32.021,27.156h-8.035c-2.852,0-5.182,2.33-5.182,5.183v5.185h18.404v-5.185
				C37.209,29.486,34.875,27.156,32.021,27.156z" transform="translate(1,-16)"/>
			<path fill="#414042" d="M28.002,26.635c3.148,0,5.705-2.553,5.705-5.703c0-3.148-2.557-5.699-5.705-5.699
				s-5.697,2.551-5.697,5.699C22.305,24.083,24.854,26.635,28.002,26.635z" transform="translate(0,-15)"/>
			<path fill="#414042" d="M32.021,27.156h-8.035c-2.852,0-5.182,2.33-5.182,5.183v5.185h18.404v-5.185
				C37.209,29.486,34.875,27.156,32.021,27.156z" transform="translate(0,-15)"/>
		</g>
	</g>
</g>
<g id="Form_Icon">
</g>
</svg>
