<?xml version="1.0" encoding="utf-8"?>
<!-- Generator: Adobe Illustrator 15.1.0, SVG Export Plug-In . SVG Version: 6.00 Build 0)  -->
<!DOCTYPE svg PUBLIC "-//W3C//DTD SVG 1.1//EN" "http://www.w3.org/Graphics/SVG/1.1/DTD/svg11.dtd">
<svg version="1.1" id="Layer_1" xmlns="http://www.w3.org/2000/svg" xmlns:xlink="http://www.w3.org/1999/xlink" x="0px" y="0px"
	 width="27.531px" height="23.438px" viewBox="0 0 27.531 23.438" enable-background="new 0 0 27.531 23.438" xml:space="preserve">
<symbol  id="Un-Saved" viewBox="-7.193 -7.193 14.387 14.387">
	<path fill="#27AAE1" stroke="#ECEFE8" stroke-width="1.0527" stroke-miterlimit="10" d="M6.667,0c0-3.682-2.985-6.667-6.666-6.667
		c-3.683,0-6.668,2.985-6.668,6.667s2.985,6.667,6.668,6.667C3.682,6.667,6.667,3.682,6.667,0z"/>
	<g>
		<path fill="#FFFFFF" d="M2.026-2.89C1.411-3.32,0.693-3.537-0.042-3.526C-0.139-3.524-0.235-3.521-0.33-3.512
			c-0.039,0.004-0.078,0.01-0.117,0.015c-0.075,0.01-0.149,0.02-0.224,0.034c-0.045,0.009-0.089,0.021-0.133,0.03
			c-0.071,0.017-0.144,0.034-0.214,0.056c-0.033,0.01-0.066,0.022-0.1,0.032c-0.081,0.027-0.161,0.056-0.239,0.089
			c-0.017,0.007-0.034,0.015-0.053,0.023C-1.5-3.193-1.59-3.15-1.678-3.104c-0.004,0.002-0.007,0.005-0.012,0.007
			c-0.296,0.162-0.565,0.364-0.803,0.602C-2.497-2.491-2.5-2.487-2.504-2.483c-0.073,0.074-0.145,0.152-0.211,0.232
			c-0.014,0.017-0.027,0.035-0.042,0.053C-3.238-1.594-3.53-0.83-3.53,0.002h0.93l-1.487,2.23l-1.486-2.23h0.93
			c0-0.978,0.305-1.884,0.822-2.633c0.006-0.011,0.01-0.021,0.018-0.031c0.054-0.077,0.113-0.147,0.171-0.22
			c0.021-0.028,0.041-0.057,0.064-0.083c0.084-0.103,0.174-0.2,0.267-0.294c0.009-0.01,0.017-0.019,0.025-0.027
			c0.311-0.312,0.662-0.573,1.044-0.782c0.011-0.006,0.021-0.013,0.03-0.018c0.11-0.06,0.224-0.113,0.338-0.163
			c0.029-0.013,0.057-0.026,0.086-0.039c0.098-0.04,0.199-0.076,0.301-0.109c0.048-0.017,0.096-0.033,0.144-0.048
			c0.09-0.026,0.18-0.049,0.271-0.07c0.062-0.014,0.121-0.029,0.184-0.042c0.025-0.005,0.049-0.012,0.074-0.017
			c0.087-0.015,0.173-0.023,0.26-0.034c0.03-0.003,0.062-0.009,0.093-0.012c0.155-0.016,0.31-0.025,0.464-0.025
			c0.944,0,1.865,0.288,2.656,0.843c0.252,0.177,0.313,0.523,0.137,0.776C2.626-2.774,2.277-2.714,2.026-2.89z"/>
		<path fill="#FFFFFF" d="M4.646,0.002C4.646,0.977,4.343,1.881,3.828,2.629C3.82,2.641,3.815,2.653,3.807,2.666
			C3.743,2.757,3.673,2.842,3.604,2.928C3.596,2.938,3.588,2.949,3.58,2.96C3.108,3.531,2.516,3.973,1.846,4.262
			c-0.02,0.009-0.037,0.017-0.055,0.025C1.683,4.331,1.574,4.37,1.463,4.406C1.424,4.42,1.384,4.435,1.344,4.446
			C1.247,4.476,1.15,4.499,1.052,4.522C0.997,4.534,0.943,4.548,0.888,4.56C0.861,4.564,0.835,4.572,0.809,4.577
			C0.734,4.59,0.661,4.596,0.588,4.605c-0.051,0.006-0.102,0.014-0.152,0.02C0.312,4.636,0.189,4.642,0.066,4.643
			C0.045,4.644,0.023,4.646,0.001,4.646c-0.004,0-0.008-0.002-0.012-0.002c-0.943,0-1.863-0.285-2.653-0.839
			C-2.915,3.63-2.977,3.282-2.8,3.03c0.176-0.253,0.524-0.313,0.775-0.137c0.61,0.427,1.322,0.644,2.052,0.637
			c0.104-0.001,0.208-0.007,0.311-0.017C0.368,3.511,0.4,3.506,0.431,3.502C0.515,3.492,0.598,3.48,0.68,3.465
			c0.036-0.008,0.072-0.017,0.107-0.025c0.081-0.018,0.16-0.037,0.239-0.062c0.025-0.007,0.05-0.017,0.075-0.024
			C1.19,3.324,1.279,3.292,1.365,3.256c0.009-0.004,0.019-0.008,0.026-0.011c0.521-0.224,0.976-0.568,1.331-0.999
			C2.725,2.244,2.728,2.24,2.729,2.238c0.5-0.609,0.802-1.389,0.802-2.236h-0.93l1.487-2.229l1.486,2.229H4.646z"/>
	</g>
</symbol>
<linearGradient id="SVGID_1_" gradientUnits="userSpaceOnUse" x1="9.0254" y1="11.7393" x2="27.2773" y2="11.7393">
	<stop  offset="0" style="stop-color:#D1D3D4"/>
	<stop  offset="0.0457" style="stop-color:#D5D6D7"/>
	<stop  offset="0.3942" style="stop-color:#ECEDED"/>
	<stop  offset="0.7205" style="stop-color:#FAFAFA"/>
	<stop  offset="1" style="stop-color:#FFFFFF"/>
</linearGradient>
<path fill="url(#SVGID_1_)" d="M27.268,6.087l-5.808-5.8L10.157,0.293c-0.626,0.001-1.132,0.51-1.132,1.134L9.039,22.06
	c0,0.625,0.508,1.133,1.133,1.133l15.973-0.01c0.627-0.001,1.134-0.511,1.133-1.136L27.268,6.087z M22.711,5.793
	c-0.405-0.052-0.772-0.428-0.814-0.835l-0.409-4.269l5.634,5.625L22.711,5.793z"/>
<use xlink:href="#Un-Saved"  width="14.387" height="14.387" x="-7.193" y="-7.193" transform="matrix(1 0 0 -1 7.4375 11.877)" overflow="visible"/>
</svg>
