<?xml version="1.0" encoding="utf-8"?>
<!-- Generator: Adobe Illustrator 16.0.0, SVG Export Plug-In . SVG Version: 6.00 Build 0)  -->
<!DOCTYPE svg PUBLIC "-//W3C//DTD SVG 1.1//EN" "http://www.w3.org/Graphics/SVG/1.1/DTD/svg11.dtd">
<svg version="1.1" id="Layer_1" xmlns="http://www.w3.org/2000/svg" xmlns:xlink="http://www.w3.org/1999/xlink" x="0px" y="0px"
	 width="56px" height="56px" viewBox="0 0 56 56" enable-background="new 0 0 56 56" xml:space="preserve">
<g>
	<polygon fill="#414042" points="36,23.523 36,16.523 32,16.523 32,19.523 27.999,15.522 17,26.522 18.999,26.522 18.999,37.523 
		25,37.523 25,28.523 31,28.523 31,37.523 37,37.523 37,26.522 39,26.522 	" transform="translate(1,-16)" />
	<polygon fill="#ffffff" points="36,23.523 36,16.523 32,16.523 32,19.523 27.999,15.522 17,26.522 18.999,26.522 18.999,37.523 
		25,37.523 25,28.523 31,28.523 31,37.523 37,37.523 37,26.522 39,26.522 	" transform="translate(0,-15)" />
</g>
<g id="Form_Icon">
</g>
</svg>
